# Blender 4.5.2 LTS
# www.blender.org
mtllib 2x1CornTile.mtl
o 2x1
v -1.000000 -1.000000 0.500000
v -1.000000 1.000000 0.500000
v -1.000000 -1.000000 -0.500000
v -1.000000 1.000000 -0.500000
v 1.000000 -1.000000 0.500000
v 1.000000 1.000000 0.500000
v 1.000000 -1.000000 -0.500000
v 1.000000 1.000000 -0.500000
vn -1.0000 -0.0000 -0.0000
vn -0.0000 -0.0000 -1.0000
vn 1.0000 -0.0000 -0.0000
vn -0.0000 -0.0000 1.0000
vt 0.166232 0.000000
vt 0.166232 1.000000
vt 0.833768 1.000000
vt 0.833768 0.000000
s 0
usemtl CornBackground
f 1/1/1 2/2/1 4/3/1 3/4/1
f 3/1/2 4/2/2 8/3/2 7/4/2
f 7/4/3 8/3/3 6/2/3 5/1/3
f 5/4/4 6/3/4 2/2/4 1/1/4
