{"accessors":[{"bufferView":0,"byteOffset":0,"componentType":5123,"count":3408,"type":"SCALAR"},{"bufferView":1,"byteOffset":0,"componentType":5126,"count":2236,"max":[0.488555103540421,2.30155611038208,0.49619272351265],"min":[-0.34905588626862,0,-0.47377124428749],"type":"VEC3"},{"bufferView":2,"byteOffset":0,"componentType":5126,"count":2236,"type":"VEC3"},{"bufferView":3,"byteOffset":0,"componentType":5126,"count":2236,"type":"VEC2"}],"asset":{"generator":"FBX2glTF v0.13.1","version":"2.0"},"bufferViews":[{"buffer":0,"byteLength":6816,"byteOffset":0,"target":34963},{"buffer":0,"byteLength":26832,"byteOffset":6816,"target":34962},{"buffer":0,"byteLength":26832,"byteOffset":33648,"target":34962},{"buffer":0,"byteLength":17888,"byteOffset":60480,"target":34962}],"buffers":[{"byteLength":78368,"uri":"Corn_01_A.bin"}],"images":[{"name":"Polygon_Camping_Texture","uri":"Polygon_Camping_Texture.psd"}],"materials":[{"alphaMode":"OPAQUE","doubleSided":false,"extras":{"fromFBX":{"isTruePBR":false,"shadingModel":"Phong"}},"name":"main","pbrMetallicRoughness":{"baseColorFactor":[1,1,1,1],"baseColorTexture":{"index":0,"texCoord":0},"metallicFactor":0.400000005960464,"roughnessFactor":0.272165536880493}}],"meshes":[{"name":"Corn_01_A","primitives":[{"attributes":{"NORMAL":2,"POSITION":1,"TEXCOORD_0":3},"indices":0,"material":0,"mode":4}]}],"nodes":[{"mesh":0,"name":"Corn_01_A","rotation":[0,0,0,1],"scale":[1,1,1],"translation":[-70.2519454956055,-0.00228840112686,0]}],"samplers":[{}],"scene":0,"scenes":[{"name":"Root Scene","nodes":[0]}],"textures":[{"name":"base_color_texture","sampler":0,"source":0}]}