{"accessors":[{"bufferView":0,"byteOffset":0,"componentType":5123,"count":540,"type":"SCALAR"},{"bufferView":1,"byteOffset":0,"componentType":5126,"count":356,"max":[0.154071897268295,0.0372318141162395,0.0780174061655998],"min":[-0.14221438765526,-0.03920047730207,-0.07699947804213],"type":"VEC3"},{"bufferView":2,"byteOffset":0,"componentType":5126,"count":356,"type":"VEC3"},{"bufferView":3,"byteOffset":0,"componentType":5126,"count":356,"type":"VEC2"}],"asset":{"generator":"FBX2glTF v0.13.1","version":"2.0"},"bufferViews":[{"buffer":0,"byteLength":1080,"byteOffset":0,"target":34963},{"buffer":0,"byteLength":4272,"byteOffset":1080,"target":34962},{"buffer":0,"byteLength":4272,"byteOffset":5352,"target":34962},{"buffer":0,"byteLength":2848,"byteOffset":9624,"target":34962}],"buffers":[{"byteLength":12472,"uri":"Corn_01_B.bin"}],"images":[{"name":"Polygon_Camping_Texture","uri":"Polygon_Camping_Texture.psd"}],"materials":[{"alphaMode":"OPAQUE","doubleSided":false,"extras":{"fromFBX":{"isTruePBR":false,"shadingModel":"Phong"}},"name":"main","pbrMetallicRoughness":{"baseColorFactor":[1,1,1,1],"baseColorTexture":{"index":0,"texCoord":0},"metallicFactor":0.400000005960464,"roughnessFactor":0.272165536880493}}],"meshes":[{"name":"Corn_01_B","primitives":[{"attributes":{"NORMAL":2,"POSITION":1,"TEXCOORD_0":3},"indices":0,"material":0,"mode":4}]}],"nodes":[{"mesh":0,"name":"Corn_01_B","rotation":[0,0,0,1],"scale":[1,1,1],"translation":[-69.3150177001953,0.0507196858525276,0.0647395402193069]}],"samplers":[{}],"scene":0,"scenes":[{"name":"Root Scene","nodes":[0]}],"textures":[{"name":"base_color_texture","sampler":0,"source":0}]}