{"accessors":[{"bufferView":0,"byteOffset":0,"componentType":5123,"count":768,"type":"SCALAR"},{"bufferView":1,"byteOffset":0,"componentType":5126,"count":768,"max":[0.512489318847656,0.103723302483559,1.06584370136261],"min":[-0.52071976661682,0,-1.0349794626236],"type":"VEC3"},{"bufferView":2,"byteOffset":0,"componentType":5126,"count":768,"type":"VEC3"},{"bufferView":3,"byteOffset":0,"componentType":5126,"count":768,"type":"VEC2"}],"asset":{"generator":"FBX2glTF v0.13.1","version":"2.0"},"bufferViews":[{"buffer":0,"byteLength":1536,"byteOffset":0,"target":34963},{"buffer":0,"byteLength":9216,"byteOffset":1536,"target":34962},{"buffer":0,"byteLength":9216,"byteOffset":10752,"target":34962},{"buffer":0,"byteLength":6144,"byteOffset":19968,"target":34962}],"buffers":[{"byteLength":26112,"uri":"Grave_01.bin"}],"images":[{"name":"Polygon_Texture_vol2","uri":"../Textures/Polygon_Texture_vol2.png"}],"materials":[{"alphaMode":"OPAQUE","doubleSided":false,"extras":{"fromFBX":{"isTruePBR":false,"shadingModel":"Phong"}},"name":"Material","pbrMetallicRoughness":{"baseColorFactor":[1,1,1,1],"baseColorTexture":{"index":0,"texCoord":0},"metallicFactor":0.400000005960464,"roughnessFactor":0.229415729641914}}],"meshes":[{"name":"Grave_01","primitives":[{"attributes":{"NORMAL":2,"POSITION":1,"TEXCOORD_0":3},"indices":0,"material":0,"mode":4}]}],"nodes":[{"mesh":0,"name":"Grave_01","rotation":[0,0,0,1],"scale":[1,1,1],"translation":[43.3763694763184,0,0]}],"samplers":[{}],"scene":0,"scenes":[{"name":"Root Scene","nodes":[0]}],"textures":[{"name":"base_color_texture","sampler":0,"source":0}]}