# Blender 4.5.2 LTS
# www.blender.org
mtllib lowpolycorn.mtl
o Stalk
v 0.000000 0.000000 -0.030000
v -0.000000 2.000000 -0.019800
v 0.017634 0.000000 -0.024271
v 0.011638 2.000000 -0.016019
v 0.028532 0.000000 -0.009271
v 0.018831 2.000000 -0.006119
v 0.028532 0.000000 0.009271
v 0.018831 2.000000 0.006119
v 0.017634 0.000000 0.024271
v 0.011638 2.000000 0.016019
v 0.000000 0.000000 0.030000
v -0.000000 2.000000 0.019800
v -0.017634 0.000000 0.024271
v -0.011638 2.000000 0.016019
v -0.028532 0.000000 0.009271
v -0.018831 2.000000 0.006119
v -0.028532 0.000000 -0.009271
v -0.018831 2.000000 -0.006119
v -0.017634 0.000000 -0.024271
v -0.011638 2.000000 -0.016019
v -0.000000 0.500000 -0.027450
v -0.000000 1.000000 -0.024900
v -0.000000 1.500000 -0.022350
v 0.013137 1.500000 -0.018082
v 0.014636 1.000000 -0.020145
v 0.016135 0.500000 -0.022208
v 0.021256 1.500000 -0.006907
v 0.023681 1.000000 -0.007695
v 0.026107 0.500000 -0.008483
v 0.021256 1.500000 0.006907
v 0.023681 1.000000 0.007695
v 0.026107 0.500000 0.008483
v 0.013137 1.500000 0.018082
v 0.014636 1.000000 0.020145
v 0.016135 0.500000 0.022208
v -0.000000 1.500000 0.022350
v -0.000000 1.000000 0.024900
v -0.000000 0.500000 0.027450
v -0.013137 1.500000 0.018082
v -0.014636 1.000000 0.020145
v -0.016135 0.500000 0.022208
v -0.021256 1.500000 0.006907
v -0.023681 1.000000 0.007695
v -0.026107 0.500000 0.008483
v -0.021256 1.500000 -0.006907
v -0.023681 1.000000 -0.007695
v -0.026107 0.500000 -0.008483
v -0.013137 1.500000 -0.018082
v -0.014636 1.000000 -0.020145
v -0.016135 0.500000 -0.022208
v -0.031336 1.203791 -0.110536
v 0.003234 1.203791 0.135666
v 0.441240 1.003729 -0.284184
v 0.437275 1.003729 -0.037982
v 0.471590 1.304363 -0.240772
v 0.392447 1.477698 -0.197360
v 0.149893 1.588652 -0.153948
v 0.184462 1.520452 0.092254
v 0.427017 1.428473 0.048842
v 0.506160 1.216280 0.005430
v -0.030839 1.201251 -0.110606
v 0.003731 1.201251 0.135596
v 0.440577 1.001544 -0.284091
v 0.436613 1.001544 -0.037889
v 0.471073 1.301777 -0.240699
v 0.392285 1.474766 -0.197337
v 0.150146 1.585701 -0.153983
v 0.184737 1.517516 0.092216
v 0.426869 1.425534 0.048863
v 0.505673 1.213643 0.005499
v -0.103415 0.431138 0.050054
v 0.133044 0.431138 -0.026743
v -0.399410 0.226814 -0.628617
v -0.156260 0.226814 -0.667465
v -0.333806 0.587113 -0.506557
v -0.262509 0.743402 -0.352214
v -0.177638 0.815999 -0.120883
v 0.058821 0.747798 -0.197680
v -0.026051 0.694176 -0.429011
v -0.097347 0.499030 -0.583354
v -0.103570 0.428598 0.049577
v 0.132889 0.428598 -0.027220
v -0.399204 0.224629 -0.627981
v -0.156053 0.224629 -0.666829
v -0.333644 0.584527 -0.506060
v -0.262459 0.740469 -0.352058
v -0.177717 0.813048 -0.121126
v 0.058736 0.744863 -0.197943
v -0.026004 0.691237 -0.428869
v -0.097195 0.496393 -0.582886
v 0.056070 0.078706 0.095395
v -0.043322 0.078706 -0.125367
v -0.354227 0.034384 0.426096
v -0.425729 0.034384 0.196272
v -0.330280 0.279871 0.354789
v -0.224421 0.481439 0.275773
v -0.061983 0.575070 0.178373
v -0.161375 0.487110 -0.042389
v -0.323813 0.417952 0.055012
v -0.429671 0.166268 0.134027
v 0.055731 0.075429 0.095576
v -0.043661 0.075429 -0.125185
v -0.353776 0.031566 0.425853
v -0.425278 0.031566 0.196030
v -0.329927 0.276535 0.354600
v -0.224311 0.477657 0.275714
v -0.062156 0.571264 0.178466
v -0.161561 0.483324 -0.042288
v -0.323712 0.414162 0.054957
v -0.429339 0.162867 0.133849
v 0.066182 0.440813 -0.093915
v -0.103398 0.440813 0.087891
v 0.654092 0.236489 0.356163
v 0.460262 0.236489 0.508021
v 0.537537 0.596789 0.281213
v 0.400352 0.753077 0.180786
v 0.213970 0.825675 0.019606
v 0.044391 0.757474 0.201412
v 0.230773 0.703851 0.362592
v 0.367958 0.508706 0.463018
v 0.066549 0.438273 -0.093572
v -0.103030 0.438273 0.088233
v 0.653603 0.234305 0.355707
v 0.459773 0.234305 0.507565
v 0.537155 0.594202 0.280856
v 0.400233 0.750145 0.180674
v 0.214158 0.822723 0.019780
v 0.044593 0.754539 0.201600
v 0.230664 0.700913 0.362490
v 0.367598 0.506069 0.462682
v -0.114424 0.757686 -0.010358
v 0.127814 0.757686 0.045600
v -0.018600 0.507485 -0.744541
v 0.209829 0.507485 -0.652609
v -0.025231 0.948682 -0.606127
v -0.043611 1.140061 -0.437108
v -0.090006 1.228958 -0.195107
v 0.152232 1.145445 -0.139149
v 0.198627 1.079783 -0.381151
v 0.217007 0.840822 -0.550170
v -0.114311 0.754575 -0.010847
v 0.127927 0.754575 0.045110
v -0.018750 0.504810 -0.743890
v 0.209678 0.504810 -0.651958
v -0.025349 0.945515 -0.605618
v -0.043648 1.136470 -0.436949
v -0.089948 1.225344 -0.195356
v 0.152294 1.141850 -0.139419
v 0.198593 1.076184 -0.381006
v 0.216896 0.837592 -0.549690
v -0.033728 1.493440 0.093009
v 0.059697 1.493440 -0.103158
v -0.486229 1.289116 -0.000930
v -0.372784 1.289116 -0.185068
v -0.398219 1.649415 0.007464
v -0.293178 1.805704 0.026091
v -0.147522 1.878301 0.069122
v -0.054098 1.810100 -0.127045
v -0.199753 1.756478 -0.170076
v -0.304794 1.561332 -0.188703
v -0.034018 1.490900 0.092906
v 0.059407 1.490900 -0.103261
v -0.485842 1.286931 -0.000793
v -0.372398 1.286931 -0.184931
v -0.397917 1.646829 0.007571
v -0.293083 1.802771 0.026125
v -0.147670 1.875350 0.069070
v -0.054258 1.807165 -0.127102
v -0.199667 1.753539 -0.170046
v -0.304510 1.558695 -0.188603
v 0.153499 0.848206 0.026963
v -0.165093 0.848206 -0.078830
v -0.114087 0.995382 0.720165
v -0.407186 0.790816 0.606957
v -0.079172 1.225703 0.636969
v -0.022569 1.374265 0.466195
v 0.085750 1.289737 0.243117
v -0.232842 1.181546 0.137324
v -0.341161 1.210939 0.334831
v -0.397763 1.000736 0.505605
v 0.153254 0.844176 0.027651
v -0.165338 0.844176 -0.078142
v -0.113761 0.991917 0.719248
v -0.406860 0.787351 0.606041
v -0.078917 1.221601 0.636252
v -0.022489 1.369613 0.465970
v 0.085625 1.285055 0.243468
v -0.232977 1.176890 0.137704
v -0.341088 1.206277 0.334626
v -0.397523 0.996552 0.504930
v 0.049366 1.585090 -0.085739
v -0.076703 1.585090 0.091225
v 0.478680 1.380766 0.085348
v 0.334984 1.380766 0.246989
v 0.393465 1.741066 0.061799
v 0.293255 1.897354 0.025215
v 0.157284 1.969952 -0.042455
v 0.031215 1.901751 0.134509
v 0.167185 1.848128 0.202179
v 0.267396 1.652983 0.238763
v 0.049634 1.582550 -0.085588
v -0.076436 1.582550 0.091376
v 0.478324 1.378582 0.085147
v 0.334627 1.378582 0.246788
v 0.393187 1.738480 0.061642
v 0.293167 1.894422 0.025166
v 0.157421 1.967000 -0.042378
v 0.031362 1.898816 0.134593
v 0.167106 1.845190 0.202134
v 0.267133 1.650346 0.238615
v -0.104778 1.197582 0.035086
v 0.131792 1.197582 -0.024953
v -0.339088 0.967657 -0.305130
v -0.099025 0.967657 -0.345358
v -0.284893 1.373102 -0.244929
v -0.227726 1.548973 -0.167875
v -0.163472 1.630667 -0.050631
v 0.073098 1.553921 -0.110669
v 0.008844 1.493580 -0.227913
v -0.048323 1.273982 -0.304967
v -0.104891 1.194724 0.034842
v 0.131679 1.194724 -0.025196
v -0.338938 0.965198 -0.304805
v -0.098875 0.965198 -0.345033
v -0.284775 1.370191 -0.244675
v -0.227689 1.545673 -0.167795
v -0.163530 1.627346 -0.050755
v 0.073036 1.550618 -0.110803
v 0.008878 1.490272 -0.227840
v -0.048212 1.271015 -0.304728
v 0.092794 1.125171 -0.051565
v -0.120966 1.125171 0.041514
v 0.393012 0.801038 0.342748
v 0.171513 0.801038 0.412008
v 0.327667 1.372605 0.274051
v 0.255737 1.620535 0.185091
v 0.168108 1.735701 0.047810
v -0.045653 1.627510 0.140889
v 0.041977 1.542445 0.278170
v 0.113906 1.232873 0.367129
v 0.092957 1.121141 -0.051278
v -0.120804 1.121141 0.041801
v 0.392796 0.797573 0.342365
v 0.171297 0.797573 0.411626
v 0.327498 1.368502 0.273752
v 0.255684 1.615884 0.184997
v 0.168190 1.731019 0.047956
v -0.045563 1.622854 0.141047
v 0.041929 1.537783 0.278084
v 0.113747 1.228690 0.366848
v 0.103415 0.188216 -0.050054
v -0.133044 0.188216 0.026743
v 0.399410 -0.016109 0.628617
v 0.156260 -0.016109 0.667465
v 0.333806 0.344191 0.506557
v 0.262509 0.500479 0.352214
v 0.177638 0.573077 0.120883
v -0.058821 0.504876 0.197680
v 0.026051 0.451254 0.429011
v 0.097348 0.256108 0.583354
v 0.103570 0.185675 -0.049577
v -0.132889 0.185675 0.027221
v 0.399204 -0.018293 0.627981
v 0.156054 -0.018293 0.666829
v 0.333645 0.341605 0.506060
v 0.262459 0.497547 0.352058
v 0.177717 0.570126 0.121126
v -0.058735 0.501941 0.197943
v 0.026005 0.448315 0.428869
v 0.097195 0.253471 0.582886
vn 0.3090 0.0049 -0.9510
vn 0.8090 0.0049 -0.5878
vn 1.0000 0.0049 -0.0000
vn 0.8090 0.0049 0.5878
vn 0.3090 0.0049 0.9510
vn -0.3090 0.0049 0.9510
vn -0.8090 0.0049 0.5878
vn -1.0000 0.0049 -0.0000
vn -0.0000 1.0000 -0.0000
vn -0.8090 0.0049 -0.5878
vn -0.3090 0.0049 -0.9510
vn -0.0000 -1.0000 -0.0000
vn 0.9804 -0.1740 -0.0921
vn -0.8633 0.4691 0.1862
vn 0.4050 0.9006 0.1579
vn 0.9230 0.3840 -0.0225
vn -0.9803 0.1749 0.0923
vn 0.8633 -0.4690 -0.1862
vn -0.4055 -0.9004 -0.1577
vn -0.9234 -0.3832 0.0228
vn -0.2123 -0.0103 -0.9771
vn -0.9715 -0.1940 0.1364
vn 0.9149 -0.2293 -0.3322
vn 0.9571 -0.2895 0.0154
vn -0.7643 0.1674 -0.6228
vn -0.4195 0.0360 -0.9070
vn -0.1765 -0.0006 -0.9843
vn 0.2148 0.0110 0.9766
vn 0.1765 0.0008 0.9843
vn 0.4128 -0.0325 0.9102
vn -0.1624 0.3345 -0.9283
vn 0.3333 0.4691 0.8179
vn 0.1345 0.9424 -0.3064
vn -0.0462 0.6698 -0.7411
vn 0.1624 -0.3345 0.9283
vn -0.3333 -0.4690 -0.8179
vn -0.1343 -0.9423 0.3068
vn 0.0463 -0.6697 0.7412
vn -0.9254 -0.0103 0.3788
vn 0.3030 -0.1940 0.9330
vn 0.8788 -0.0434 -0.4752
vn -0.1510 -0.2895 -0.9452
vn -0.9116 0.0271 0.4101
vn -0.9127 0.0132 0.4084
vn -0.9387 -0.0006 0.3446
vn 0.9244 0.0110 -0.3812
vn 0.9387 0.0008 -0.3446
vn 0.9134 -0.0120 -0.4068
vn -0.9356 0.1608 0.3143
vn 0.8455 0.3015 -0.4407
vn -0.4847 0.8710 -0.0805
vn -0.8597 0.4707 0.1983
vn 0.9356 -0.1607 -0.3144
vn -0.8455 -0.3014 0.4407
vn 0.4851 -0.8708 0.0802
vn 0.8598 -0.4706 -0.1983
vn 0.5533 -0.0077 0.8329
vn 0.9057 -0.1163 -0.4077
vn -0.9786 -0.1116 -0.1730
vn -0.9400 -0.1757 0.2925
vn 0.8430 0.0728 0.5330
vn 0.5862 0.0098 0.8101
vn 0.5145 -0.0004 0.8575
vn -0.5560 0.0082 -0.8311
vn -0.5145 0.0006 -0.8575
vn -0.5845 -0.0090 -0.8114
vn 0.5921 0.3345 0.7332
vn -0.6880 0.4691 -0.5537
vn 0.0309 0.9424 0.3332
vn 0.3998 0.6698 0.6258
vn -0.5921 -0.3345 -0.7332
vn 0.6880 -0.4690 0.5537
vn -0.0313 -0.9423 -0.3334
vn -0.3998 -0.6697 -0.6259
vn 0.6258 -0.0103 -0.7799
vn -0.7174 -0.1940 -0.6691
vn -0.5382 -0.0435 0.8417
vn 0.5903 -0.2895 0.7535
vn 0.5985 0.0271 -0.8007
vn 0.6003 0.0132 -0.7997
vn 0.6540 -0.0006 -0.7565
vn -0.6237 0.0110 0.7816
vn -0.6540 0.0008 0.7565
vn -0.6017 -0.0121 0.7987
vn 0.3454 0.2784 -0.8962
vn -0.1408 0.3979 0.9065
vn 0.3254 0.9171 -0.2305
vn 0.3709 0.5930 -0.7146
vn -0.3454 -0.2784 0.8962
vn 0.1408 -0.3979 -0.9066
vn -0.3254 -0.9169 0.2309
vn -0.3709 -0.5929 0.7147
vn -0.9884 -0.0084 -0.1520
vn -0.2222 -0.1594 0.9619
vn 0.9983 -0.0355 0.0453
vn 0.3625 -0.2398 -0.9006
vn -0.9928 0.0221 -0.1180
vn -0.9927 0.0108 -0.1201
vn -0.9822 -0.0005 -0.1881
vn 0.9887 0.0089 0.1494
vn 0.9822 0.0007 0.1881
vn 0.9925 -0.0098 0.1217
vn -0.8375 0.2104 -0.5043
vn 0.8782 0.3097 0.3644
vn -0.2664 0.8812 -0.3906
vn -0.7143 0.4809 -0.5085
vn 0.8375 -0.2103 0.5043
vn -0.8782 -0.3097 -0.3644
vn 0.2669 -0.8810 0.3907
vn 0.7143 -0.4808 0.5085
vn -0.2338 -0.0088 0.9722
vn 0.8964 -0.1196 0.4269
vn 0.0916 -0.0363 -0.9951
vn -0.8374 -0.1803 -0.5159
vn -0.1878 0.0230 0.9819
vn -0.1907 0.0113 0.9816
vn -0.2830 -0.0005 0.9591
vn 0.2303 0.0094 -0.9731
vn 0.2830 0.0007 -0.9591
vn 0.1929 -0.0103 -0.9812
vn -0.5564 0.3683 0.7448
vn 0.1940 0.5036 -0.8419
vn -0.2448 0.8966 -0.3689
vn -0.5922 0.6457 0.4820
vn 0.5565 -0.3684 -0.7447
vn -0.1940 -0.5037 0.8418
vn 0.2445 -0.8965 0.3696
vn 0.5922 -0.6457 -0.4820
vn 0.9519 -0.0039 0.3063
vn 0.3101 -0.1784 -0.9338
vn -0.9848 -0.0377 -0.1693
vn -0.1791 -0.2673 0.9468
vn 0.9297 -0.0080 0.3681
vn 0.9486 0.0023 0.3164
vn 0.8997 0.0016 0.4364
vn -0.9524 0.0042 -0.3049
vn -0.8769 -0.0032 -0.4807
vn -0.9485 -0.0021 -0.3169
vn 0.7372 0.2104 0.6421
vn -0.8016 0.3097 -0.5114
vn 0.1945 0.8812 0.4309
vn 0.6151 0.4809 0.6248
vn -0.7372 -0.2103 -0.6421
vn 0.8016 -0.3097 0.5114
vn -0.1950 -0.8810 -0.4312
vn -0.6152 -0.4808 -0.6248
vn 0.3990 -0.0088 -0.9169
vn -0.8086 -0.1196 -0.5761
vn -0.2630 -0.0362 0.9641
vn 0.7351 -0.1803 0.6535
vn 0.3555 0.0230 -0.9344
vn 0.3582 0.0113 -0.9336
vn 0.4453 -0.0005 -0.8954
vn -0.3958 0.0094 0.9183
vn -0.4453 0.0007 0.8954
vn -0.3604 -0.0103 0.9328
vn -0.1706 0.1625 -0.9718
vn 0.2755 0.2429 0.9301
vn 0.0914 0.8288 -0.5521
vn -0.1059 0.3875 -0.9158
vn 0.1707 -0.1625 0.9718
vn -0.2755 -0.2429 -0.9301
vn -0.0911 -0.8285 0.5526
vn 0.1059 -0.3874 0.9158
vn -0.8446 -0.0085 0.5353
vn 0.2449 -0.0920 0.9652
vn 0.7403 -0.0341 -0.6715
vn -0.1637 -0.1389 -0.9767
vn -0.8125 0.0221 0.5826
vn -0.8146 0.0108 0.5799
vn -0.8768 -0.0005 0.4809
vn 0.8422 0.0091 -0.5390
vn 0.8768 0.0007 -0.4809
vn 0.8162 -0.0099 -0.5777
vn 0.3049 0.1439 0.9414
vn -0.4351 0.2150 -0.8743
vn -0.0724 0.7833 0.6175
vn 0.2198 0.3476 0.9115
vn -0.3049 -0.1439 -0.9414
vn 0.4351 -0.2150 0.8743
vn 0.0720 -0.7829 -0.6179
vn -0.2198 -0.3475 -0.9115
vn 0.8142 -0.0060 -0.5806
vn -0.3979 -0.0812 -0.9138
vn -0.7221 -0.0245 0.6914
vn 0.2962 -0.1230 0.9472
vn 0.7859 0.0156 -0.6181
vn 0.7878 0.0076 -0.6159
vn 0.8427 -0.0003 -0.5383
vn -0.8121 0.0063 0.5835
vn -0.8428 0.0005 0.5383
vn -0.7892 -0.0069 0.6141
vn 0.1624 0.3345 0.9283
vn -0.3333 0.4691 -0.8179
vn -0.1345 0.9424 0.3064
vn 0.0462 0.6698 0.7411
vn -0.1624 -0.3345 -0.9283
vn 0.3333 -0.4690 0.8179
vn 0.1343 -0.9423 -0.3068
vn -0.0463 -0.6697 -0.7412
vn 0.9254 -0.0103 -0.3788
vn -0.3030 -0.1940 -0.9330
vn -0.8788 -0.0435 0.4752
vn 0.1510 -0.2895 0.9452
vn 0.9116 0.0271 -0.4101
vn 0.9127 0.0132 -0.4084
vn 0.9387 -0.0006 -0.3446
vn -0.9244 0.0110 0.3812
vn -0.9387 0.0008 0.3446
vn -0.9134 -0.0121 0.4068
vt 0.494298 0.999297
vt 0.496522 1.165499
vt 0.512244 1.165448
vt 0.519793 0.999239
vt 0.521562 1.165242
vt 0.533271 0.999007
vt 0.521528 1.164960
vt 0.531767 0.998688
vt 0.514089 1.164709
vt 0.520199 0.998406
vt 0.502617 1.164586
vt 0.503709 0.998267
vt 0.490455 1.164638
vt 0.486413 0.998325
vt 0.480893 1.164844
vt 0.472209 0.998558
vt 0.477351 1.165126
vt 0.465759 0.998876
vt 0.482708 1.165376
vt 0.472549 0.999158
vt 1.021162 0.500691
vt 0.920949 0.500614
vt 0.820960 0.500301
vt 0.721180 0.499874
vt 0.621305 0.499495
vt 0.521162 0.499309
vt 0.420949 0.499386
vt 0.320960 0.499699
vt 0.221180 0.500126
vt 1.121305 0.500505
vt 0.121305 0.500505
vt 0.356888 0.666723
vt 0.430142 0.666893
vt 0.021162 0.500691
vt 0.449020 0.832941
vt 0.488402 0.833095
vt 0.383196 0.666376
vt 0.442866 0.832626
vt 0.422434 0.665985
vt 0.456695 0.832271
vt 0.465318 0.665699
vt 0.479535 0.832012
vt 0.509304 0.665628
vt 0.505549 0.831947
vt 0.553017 0.665799
vt 0.530756 0.832102
vt 0.594826 0.666145
vt 0.550712 0.832417
vt 0.630688 0.666536
vt 0.557858 0.832772
vt 0.640075 0.666822
vt 0.538568 0.833031
vt 0.000000 0.750000
vt 1.000000 0.750000
vt 1.000000 1.000000
vt 0.000000 1.000000
vt 0.000000 0.000000
vt 1.000000 0.000000
vt 1.000000 0.250000
vt 0.000000 0.250000
vt 1.000000 0.500000
vt 0.000000 0.500000
s 0
usemtl Stalk
f 23/1/1 2/2/1 4/3/1 24/4/1
f 24/4/2 4/3/2 6/5/2 27/6/2
f 27/6/3 6/5/3 8/7/3 30/8/3
f 30/8/4 8/7/4 10/9/4 33/10/4
f 33/10/5 10/9/5 12/11/5 36/12/5
f 36/12/6 12/11/6 14/13/6 39/14/6
f 39/14/7 14/13/7 16/15/7 42/16/7
f 42/16/8 16/15/8 18/17/8 45/18/8
f 4/3/9 2/2/9 20/19/9 18/17/9 16/15/9 14/13/9 12/11/9 10/9/9 8/7/9 6/5/9
f 45/18/10 18/17/10 20/19/10 48/20/10
f 48/20/11 20/19/11 2/2/11 23/1/11
f 1/21/12 3/22/12 5/23/12 7/24/12 9/25/12 11/26/12 13/27/12 15/28/12 17/29/12 19/30/12
f 19/31/11 50/32/11 21/33/11 1/34/11
f 50/32/11 49/35/11 22/36/11 21/33/11
f 49/35/11 48/20/11 23/1/11 22/36/11
f 17/29/10 47/37/10 50/32/10 19/31/10
f 47/37/10 46/38/10 49/35/10 50/32/10
f 46/38/10 45/18/10 48/20/10 49/35/10
f 15/28/8 44/39/8 47/37/8 17/29/8
f 44/39/8 43/40/8 46/38/8 47/37/8
f 43/40/8 42/16/8 45/18/8 46/38/8
f 13/27/7 41/41/7 44/39/7 15/28/7
f 41/41/7 40/42/7 43/40/7 44/39/7
f 40/42/7 39/14/7 42/16/7 43/40/7
f 11/26/6 38/43/6 41/41/6 13/27/6
f 38/43/6 37/44/6 40/42/6 41/41/6
f 37/44/6 36/12/6 39/14/6 40/42/6
f 9/25/5 35/45/5 38/43/5 11/26/5
f 35/45/5 34/46/5 37/44/5 38/43/5
f 34/46/5 33/10/5 36/12/5 37/44/5
f 7/24/4 32/47/4 35/45/4 9/25/4
f 32/47/4 31/48/4 34/46/4 35/45/4
f 31/48/4 30/8/4 33/10/4 34/46/4
f 5/23/3 29/49/3 32/47/3 7/24/3
f 29/49/3 28/50/3 31/48/3 32/47/3
f 28/50/3 27/6/3 30/8/3 31/48/3
f 3/22/2 26/51/2 29/49/2 5/23/2
f 26/51/2 25/52/2 28/50/2 29/49/2
f 25/52/2 24/4/2 27/6/2 28/50/2
f 1/21/1 21/33/1 26/51/1 3/22/1
f 21/33/1 22/36/1 25/52/1 26/51/1
f 22/36/1 23/1/1 24/4/1 25/52/1
usemtl Leaf
f 55/53/13 60/54/13 54/55/13 53/56/13
f 51/57/14 52/58/14 58/59/14 57/60/14
f 57/60/15 58/59/15 59/61/15 56/62/15
f 56/62/16 59/61/16 60/54/16 55/53/16
f 65/53/17 63/56/17 64/55/17 70/54/17
f 61/57/18 67/60/18 68/59/18 62/58/18
f 67/60/19 66/62/19 69/61/19 68/59/19
f 66/62/20 65/53/20 70/54/20 69/61/20
f 51/57/21 57/60/21 67/60/21 61/57/21
f 52/58/22 51/57/22 61/57/22 62/58/22
f 54/55/23 60/54/23 70/54/23 64/55/23
f 53/56/24 54/55/24 64/55/24 63/56/24
f 55/53/25 53/56/25 63/56/25 65/53/25
f 56/62/26 55/53/26 65/53/26 66/62/26
f 57/60/27 56/62/27 66/62/27 67/60/27
f 58/59/28 52/58/28 62/58/28 68/59/28
f 59/61/29 58/59/29 68/59/29 69/61/29
f 60/54/30 59/61/30 69/61/30 70/54/30
f 75/53/31 80/54/31 74/55/31 73/56/31
f 71/57/32 72/58/32 78/59/32 77/60/32
f 77/60/33 78/59/33 79/61/33 76/62/33
f 76/62/34 79/61/34 80/54/34 75/53/34
f 85/53/35 83/56/35 84/55/35 90/54/35
f 81/57/36 87/60/36 88/59/36 82/58/36
f 87/60/37 86/62/37 89/61/37 88/59/37
f 86/62/38 85/53/38 90/54/38 89/61/38
f 71/57/39 77/60/39 87/60/39 81/57/39
f 72/58/40 71/57/40 81/57/40 82/58/40
f 74/55/41 80/54/41 90/54/41 84/55/41
f 73/56/42 74/55/42 84/55/42 83/56/42
f 75/53/43 73/56/43 83/56/43 85/53/43
f 76/62/44 75/53/44 85/53/44 86/62/44
f 77/60/45 76/62/45 86/62/45 87/60/45
f 78/59/46 72/58/46 82/58/46 88/59/46
f 79/61/47 78/59/47 88/59/47 89/61/47
f 80/54/48 79/61/48 89/61/48 90/54/48
f 95/53/49 100/54/49 94/55/49 93/56/49
f 91/57/50 92/58/50 98/59/50 97/60/50
f 97/60/51 98/59/51 99/61/51 96/62/51
f 96/62/52 99/61/52 100/54/52 95/53/52
f 105/53/53 103/56/53 104/55/53 110/54/53
f 101/57/54 107/60/54 108/59/54 102/58/54
f 107/60/55 106/62/55 109/61/55 108/59/55
f 106/62/56 105/53/56 110/54/56 109/61/56
f 91/57/57 97/60/57 107/60/57 101/57/57
f 92/58/58 91/57/58 101/57/58 102/58/58
f 94/55/59 100/54/59 110/54/59 104/55/59
f 93/56/60 94/55/60 104/55/60 103/56/60
f 95/53/61 93/56/61 103/56/61 105/53/61
f 96/62/62 95/53/62 105/53/62 106/62/62
f 97/60/63 96/62/63 106/62/63 107/60/63
f 98/59/64 92/58/64 102/58/64 108/59/64
f 99/61/65 98/59/65 108/59/65 109/61/65
f 100/54/66 99/61/66 109/61/66 110/54/66
f 115/53/67 120/54/67 114/55/67 113/56/67
f 111/57/68 112/58/68 118/59/68 117/60/68
f 117/60/69 118/59/69 119/61/69 116/62/69
f 116/62/70 119/61/70 120/54/70 115/53/70
f 125/53/71 123/56/71 124/55/71 130/54/71
f 121/57/72 127/60/72 128/59/72 122/58/72
f 127/60/73 126/62/73 129/61/73 128/59/73
f 126/62/74 125/53/74 130/54/74 129/61/74
f 111/57/75 117/60/75 127/60/75 121/57/75
f 112/58/76 111/57/76 121/57/76 122/58/76
f 114/55/77 120/54/77 130/54/77 124/55/77
f 113/56/78 114/55/78 124/55/78 123/56/78
f 115/53/79 113/56/79 123/56/79 125/53/79
f 116/62/80 115/53/80 125/53/80 126/62/80
f 117/60/81 116/62/81 126/62/81 127/60/81
f 118/59/82 112/58/82 122/58/82 128/59/82
f 119/61/83 118/59/83 128/59/83 129/61/83
f 120/54/84 119/61/84 129/61/84 130/54/84
f 135/53/85 140/54/85 134/55/85 133/56/85
f 131/57/86 132/58/86 138/59/86 137/60/86
f 137/60/87 138/59/87 139/61/87 136/62/87
f 136/62/88 139/61/88 140/54/88 135/53/88
f 145/53/89 143/56/89 144/55/89 150/54/89
f 141/57/90 147/60/90 148/59/90 142/58/90
f 147/60/91 146/62/91 149/61/91 148/59/91
f 146/62/92 145/53/92 150/54/92 149/61/92
f 131/57/93 137/60/93 147/60/93 141/57/93
f 132/58/94 131/57/94 141/57/94 142/58/94
f 134/55/95 140/54/95 150/54/95 144/55/95
f 133/56/96 134/55/96 144/55/96 143/56/96
f 135/53/97 133/56/97 143/56/97 145/53/97
f 136/62/98 135/53/98 145/53/98 146/62/98
f 137/60/99 136/62/99 146/62/99 147/60/99
f 138/59/100 132/58/100 142/58/100 148/59/100
f 139/61/101 138/59/101 148/59/101 149/61/101
f 140/54/102 139/61/102 149/61/102 150/54/102
f 155/53/103 160/54/103 154/55/103 153/56/103
f 151/57/104 152/58/104 158/59/104 157/60/104
f 157/60/105 158/59/105 159/61/105 156/62/105
f 156/62/106 159/61/106 160/54/106 155/53/106
f 165/53/107 163/56/107 164/55/107 170/54/107
f 161/57/108 167/60/108 168/59/108 162/58/108
f 167/60/109 166/62/109 169/61/109 168/59/109
f 166/62/110 165/53/110 170/54/110 169/61/110
f 151/57/111 157/60/111 167/60/111 161/57/111
f 152/58/112 151/57/112 161/57/112 162/58/112
f 154/55/113 160/54/113 170/54/113 164/55/113
f 153/56/114 154/55/114 164/55/114 163/56/114
f 155/53/115 153/56/115 163/56/115 165/53/115
f 156/62/116 155/53/116 165/53/116 166/62/116
f 157/60/117 156/62/117 166/62/117 167/60/117
f 158/59/118 152/58/118 162/58/118 168/59/118
f 159/61/119 158/59/119 168/59/119 169/61/119
f 160/54/120 159/61/120 169/61/120 170/54/120
f 175/53/121 180/54/121 174/55/121 173/56/121
f 171/57/122 172/58/122 178/59/122 177/60/122
f 177/60/123 178/59/123 179/61/123 176/62/123
f 176/62/124 179/61/124 180/54/124 175/53/124
f 185/53/125 183/56/125 184/55/125 190/54/125
f 181/57/126 187/60/126 188/59/126 182/58/126
f 187/60/127 186/62/127 189/61/127 188/59/127
f 186/62/128 185/53/128 190/54/128 189/61/128
f 171/57/129 177/60/129 187/60/129 181/57/129
f 172/58/130 171/57/130 181/57/130 182/58/130
f 174/55/131 180/54/131 190/54/131 184/55/131
f 173/56/132 174/55/132 184/55/132 183/56/132
f 175/53/133 173/56/133 183/56/133 185/53/133
f 176/62/134 175/53/134 185/53/134 186/62/134
f 177/60/135 176/62/135 186/62/135 187/60/135
f 178/59/136 172/58/136 182/58/136 188/59/136
f 179/61/137 178/59/137 188/59/137 189/61/137
f 180/54/138 179/61/138 189/61/138 190/54/138
f 195/53/139 200/54/139 194/55/139 193/56/139
f 191/57/140 192/58/140 198/59/140 197/60/140
f 197/60/141 198/59/141 199/61/141 196/62/141
f 196/62/142 199/61/142 200/54/142 195/53/142
f 205/53/143 203/56/143 204/55/143 210/54/143
f 201/57/144 207/60/144 208/59/144 202/58/144
f 207/60/145 206/62/145 209/61/145 208/59/145
f 206/62/146 205/53/146 210/54/146 209/61/146
f 191/57/147 197/60/147 207/60/147 201/57/147
f 192/58/148 191/57/148 201/57/148 202/58/148
f 194/55/149 200/54/149 210/54/149 204/55/149
f 193/56/150 194/55/150 204/55/150 203/56/150
f 195/53/151 193/56/151 203/56/151 205/53/151
f 196/62/152 195/53/152 205/53/152 206/62/152
f 197/60/153 196/62/153 206/62/153 207/60/153
f 198/59/154 192/58/154 202/58/154 208/59/154
f 199/61/155 198/59/155 208/59/155 209/61/155
f 200/54/156 199/61/156 209/61/156 210/54/156
f 215/53/157 220/54/157 214/55/157 213/56/157
f 211/57/158 212/58/158 218/59/158 217/60/158
f 217/60/159 218/59/159 219/61/159 216/62/159
f 216/62/160 219/61/160 220/54/160 215/53/160
f 225/53/161 223/56/161 224/55/161 230/54/161
f 221/57/162 227/60/162 228/59/162 222/58/162
f 227/60/163 226/62/163 229/61/163 228/59/163
f 226/62/164 225/53/164 230/54/164 229/61/164
f 211/57/165 217/60/165 227/60/165 221/57/165
f 212/58/166 211/57/166 221/57/166 222/58/166
f 214/55/167 220/54/167 230/54/167 224/55/167
f 213/56/168 214/55/168 224/55/168 223/56/168
f 215/53/169 213/56/169 223/56/169 225/53/169
f 216/62/170 215/53/170 225/53/170 226/62/170
f 217/60/171 216/62/171 226/62/171 227/60/171
f 218/59/172 212/58/172 222/58/172 228/59/172
f 219/61/173 218/59/173 228/59/173 229/61/173
f 220/54/174 219/61/174 229/61/174 230/54/174
f 235/53/175 240/54/175 234/55/175 233/56/175
f 231/57/176 232/58/176 238/59/176 237/60/176
f 237/60/177 238/59/177 239/61/177 236/62/177
f 236/62/178 239/61/178 240/54/178 235/53/178
f 245/53/179 243/56/179 244/55/179 250/54/179
f 241/57/180 247/60/180 248/59/180 242/58/180
f 247/60/181 246/62/181 249/61/181 248/59/181
f 246/62/182 245/53/182 250/54/182 249/61/182
f 231/57/183 237/60/183 247/60/183 241/57/183
f 232/58/184 231/57/184 241/57/184 242/58/184
f 234/55/185 240/54/185 250/54/185 244/55/185
f 233/56/186 234/55/186 244/55/186 243/56/186
f 235/53/187 233/56/187 243/56/187 245/53/187
f 236/62/188 235/53/188 245/53/188 246/62/188
f 237/60/189 236/62/189 246/62/189 247/60/189
f 238/59/190 232/58/190 242/58/190 248/59/190
f 239/61/191 238/59/191 248/59/191 249/61/191
f 240/54/192 239/61/192 249/61/192 250/54/192
f 255/53/193 260/54/193 254/55/193 253/56/193
f 251/57/194 252/58/194 258/59/194 257/60/194
f 257/60/195 258/59/195 259/61/195 256/62/195
f 256/62/196 259/61/196 260/54/196 255/53/196
f 265/53/197 263/56/197 264/55/197 270/54/197
f 261/57/198 267/60/198 268/59/198 262/58/198
f 267/60/199 266/62/199 269/61/199 268/59/199
f 266/62/200 265/53/200 270/54/200 269/61/200
f 251/57/201 257/60/201 267/60/201 261/57/201
f 252/58/202 251/57/202 261/57/202 262/58/202
f 254/55/203 260/54/203 270/54/203 264/55/203
f 253/56/204 254/55/204 264/55/204 263/56/204
f 255/53/205 253/56/205 263/56/205 265/53/205
f 256/62/206 255/53/206 265/53/206 266/62/206
f 257/60/207 256/62/207 266/62/207 267/60/207
f 258/59/208 252/58/208 262/58/208 268/59/208
f 259/61/209 258/59/209 268/59/209 269/61/209
f 260/54/210 259/61/210 269/61/210 270/54/210
