{"accessors":[{"bufferView":0,"byteOffset":0,"componentType":5123,"count":147,"type":"SCALAR"},{"bufferView":1,"byteOffset":0,"componentType":5126,"count":89,"max":[0.389884114265442,1.37427759170532,0.268345594406128],"min":[-0.47617825865746,0,-0.57992053031921],"type":"VEC3"},{"bufferView":2,"byteOffset":0,"componentType":5126,"count":89,"type":"VEC3"},{"bufferView":3,"byteOffset":0,"componentType":5126,"count":89,"type":"VEC2"}],"asset":{"generator":"FBX2glTF v0.13.1","version":"2.0"},"bufferViews":[{"buffer":0,"byteLength":294,"byteOffset":0,"target":34963},{"buffer":0,"byteLength":1068,"byteOffset":296,"target":34962},{"buffer":0,"byteLength":1068,"byteOffset":1364,"target":34962},{"buffer":0,"byteLength":712,"byteOffset":2432,"target":34962}],"buffers":[{"byteLength":3144,"uri":"Rock_02.bin"}],"images":[{"name":"Polygon_Texture_vol2","uri":"../Textures/Polygon_Texture_vol2.png"}],"materials":[{"alphaMode":"OPAQUE","doubleSided":false,"extras":{"fromFBX":{"isTruePBR":false,"shadingModel":"Phong"}},"name":"Material","pbrMetallicRoughness":{"baseColorFactor":[1,1,1,1],"baseColorTexture":{"index":0,"texCoord":0},"metallicFactor":0.400000005960464,"roughnessFactor":0.229415729641914}}],"meshes":[{"name":"Rock_02","primitives":[{"attributes":{"NORMAL":2,"POSITION":1,"TEXCOORD_0":3},"indices":0,"material":0,"mode":4}]}],"nodes":[{"mesh":0,"name":"Rock_02","rotation":[0,0,0,1],"scale":[1,1,1],"translation":[5.58345651626587,0,0]}],"samplers":[{}],"scene":0,"scenes":[{"name":"Root Scene","nodes":[0]}],"textures":[{"name":"base_color_texture","sampler":0,"source":0}]}