{"accessors":[{"bufferView":0,"byteOffset":0,"componentType":5123,"count":13722,"type":"SCALAR"},{"bufferView":1,"byteOffset":0,"componentType":5126,"count":8871,"max":[1.12302148342133,1.82916879653931,0.293662250041962],"min":[-1.10306560993195,0,-0.14176580309868],"type":"VEC3"},{"bufferView":2,"byteOffset":0,"componentType":5126,"count":8871,"type":"VEC3"},{"bufferView":3,"byteOffset":0,"componentType":5126,"count":8871,"type":"VEC2"},{"bufferView":4,"byteOffset":0,"componentType":5123,"count":270,"type":"SCALAR"},{"bufferView":5,"byteOffset":0,"componentType":5126,"count":178,"max":[1.11292171478271,1.67240309715271,0.28226175904274],"min":[-0.10684546083212,1.06179213523865,-0.00407340656966],"type":"VEC3"},{"bufferView":6,"byteOffset":0,"componentType":5126,"count":178,"type":"VEC3"},{"bufferView":7,"byteOffset":0,"componentType":5126,"count":178,"type":"VEC2"}],"asset":{"generator":"FBX2glTF v0.13.1","version":"2.0"},"bufferViews":[{"buffer":0,"byteLength":27444,"byteOffset":0,"target":34963},{"buffer":0,"byteLength":106452,"byteOffset":27444,"target":34962},{"buffer":0,"byteLength":106452,"byteOffset":133896,"target":34962},{"buffer":0,"byteLength":70968,"byteOffset":240348,"target":34962},{"buffer":0,"byteLength":540,"byteOffset":311316,"target":34963},{"buffer":0,"byteLength":2136,"byteOffset":311856,"target":34962},{"buffer":0,"byteLength":2136,"byteOffset":313992,"target":34962},{"buffer":0,"byteLength":1424,"byteOffset":316128,"target":34962}],"buffers":[{"byteLength":317552,"uri":"Scarecrow.bin"}],"images":[{"name":"Polygon_Texture_vol2","uri":"../Textures/Polygon_Texture_vol2.png"}],"materials":[{"alphaMode":"OPAQUE","doubleSided":false,"extras":{"fromFBX":{"isTruePBR":false,"shadingModel":"Phong"}},"name":"Material","pbrMetallicRoughness":{"baseColorFactor":[1,1,1,1],"baseColorTexture":{"index":0,"texCoord":0},"metallicFactor":0.400000005960464,"roughnessFactor":0.229415729641914}},{"alphaMode":"OPAQUE","doubleSided":false,"extras":{"fromFBX":{"isTruePBR":false,"shadingModel":"Phong"}},"name":"Material.020","pbrMetallicRoughness":{"baseColorFactor":[0.800000011920929,0.800000011920929,0.800000011920929,1],"metallicFactor":0.400000005960464,"roughnessFactor":0.272165536880493}}],"meshes":[{"name":"Scarecrow","primitives":[{"attributes":{"NORMAL":2,"POSITION":1,"TEXCOORD_0":3},"indices":0,"material":0,"mode":4},{"attributes":{"NORMAL":6,"POSITION":5,"TEXCOORD_0":7},"indices":4,"material":1,"mode":4}]}],"nodes":[{"mesh":0,"name":"Scarecrow","rotation":[0,0,0,1],"scale":[1,1,1],"translation":[32.1021995544434,0,0]}],"samplers":[{}],"scene":0,"scenes":[{"name":"Root Scene","nodes":[0]}],"textures":[{"name":"base_color_texture","sampler":0,"source":0}]}