{"accessors":[{"bufferView":0,"byteOffset":0,"componentType":5123,"count":7974,"type":"SCALAR"},{"bufferView":1,"byteOffset":0,"componentType":5126,"count":4932,"max":[0.883586227893829,1.29191911220551,0.602654218673706],"min":[-0.60281985998154,-0.02025677077472,-0.60293793678284],"type":"VEC3"},{"bufferView":2,"byteOffset":0,"componentType":5126,"count":4932,"type":"VEC3"},{"bufferView":3,"byteOffset":0,"componentType":5126,"count":4932,"type":"VEC2"}],"asset":{"generator":"FBX2glTF v0.13.1","version":"2.0"},"bufferViews":[{"buffer":0,"byteLength":15948,"byteOffset":0,"target":34963},{"buffer":0,"byteLength":59184,"byteOffset":15948,"target":34962},{"buffer":0,"byteLength":59184,"byteOffset":75132,"target":34962},{"buffer":0,"byteLength":39456,"byteOffset":134316,"target":34962}],"buffers":[{"byteLength":173772,"uri":"Well_01.bin"}],"images":[{"name":"Polygon_Camping_Texture","uri":"Polygon_Camping_Texture.psd"}],"materials":[{"alphaMode":"OPAQUE","doubleSided":false,"extras":{"fromFBX":{"isTruePBR":false,"shadingModel":"Phong"}},"name":"main","pbrMetallicRoughness":{"baseColorFactor":[1,1,1,1],"baseColorTexture":{"index":0,"texCoord":0},"metallicFactor":0.400000005960464,"roughnessFactor":0.272165536880493}}],"meshes":[{"name":"Well_01","primitives":[{"attributes":{"NORMAL":2,"POSITION":1,"TEXCOORD_0":3},"indices":0,"material":0,"mode":4}]}],"nodes":[{"mesh":0,"name":"Well_01","rotation":[0,0,0,1],"scale":[1,1,1],"translation":[-15.6163787841797,-0.21759197115898,0.000000000931322574615479]}],"samplers":[{}],"scene":0,"scenes":[{"name":"Root Scene","nodes":[0]}],"textures":[{"name":"base_color_texture","sampler":0,"source":0}]}